<svg xmlns="http://www.w3.org/2000/svg" xmlns:xlink="http://www.w3.org/1999/xlink" width="77" height="38" viewBox="0 0 77 38">
  <defs>
    <linearGradient id="linear-gradient" x1="0.5" x2="0.5" y2="1" gradientUnits="objectBoundingBox">
      <stop offset="0" stop-color="#fbbd33"/>
      <stop offset="1" stop-color="#ed8333"/>
    </linearGradient>
  </defs>
  <g id="Group_227" data-name="Group 227" transform="translate(-20680 -15255)">
    <rect id="Rectangle_92" data-name="Rectangle 92" width="77" height="38" rx="19" transform="translate(20680 15255)" fill="url(#linear-gradient)"/>
    <path id="Path_318" data-name="Path 318" d="M8.579,1.422a1.638,1.638,0,0,0-.774.067A1.641,1.641,0,0,0,5.272.359,1.23,1.23,0,0,0,3.383.533C3.345.525,3.308.518,3.269.512A1.915,1.915,0,0,0,1.145,1.857a1.216,1.216,0,0,0-.119,2.417,1.15,1.15,0,0,0,.153.013c0,.021-.008.043-.011.064A1.216,1.216,0,0,0,3.4,5.174,1.641,1.641,0,0,0,5.852,5.6a1.64,1.64,0,0,0,2.058-.968,1.641,1.641,0,1,0,.668-3.21Z" transform="translate(20743.164 15266.561)" fill="#d2fffd"/>
    <g id="Layer_2" data-name="Layer 2" transform="translate(20732 15258.391)">
      <g id="objects">
        <g id="Group_225" data-name="Group 225">
          <path id="Path_310" data-name="Path 310" d="M19.366,12.474l-7.637-1.863,6.818,3.911-7.03-3.517,5.77,5.339-6.065-5,4.434,6.491-4.8-6.223,2.887,7.312-3.306-7.132,1.192,7.769L9.993,11.872l-.578,7.839.13-7.86L7.237,19.366,9.1,11.728,5.189,18.547l3.517-7.03-5.339,5.77,5-6.065L1.877,15.656l6.223-4.8L.788,13.74,7.92,10.434.15,11.626,7.839,9.993,0,9.415l7.86.13L.345,7.237,7.983,9.1,1.164,5.189l7.03,3.517L2.424,3.367l6.065,5L4.055,1.877,8.858,8.1,5.971.788,9.277,7.92,8.085.15,9.719,7.839,10.3,0l-.13,7.86L12.474.345,10.611,7.983l3.911-6.818-3.517,7.03,5.339-5.77-5,6.065,6.491-4.434-6.223,4.8,7.312-2.887L11.791,9.277,19.56,8.085,11.872,9.719l7.839.577-7.86-.13Z" fill="#fff"/>
          <circle id="Ellipse_61" data-name="Ellipse 61" cx="4.888" cy="4.888" r="4.888" transform="translate(2.943 9.855) rotate(-45)" fill="#fff"/>
        </g>
      </g>
    </g>
    <path id="Path_312" data-name="Path 312" d="M10.192,3.1a1.359,1.359,0,0,0-.588.134,2.176,2.176,0,0,0-2.962-1.9,2.466,2.466,0,0,0-4.762.819h0a1.84,1.84,0,1,0,0,3.681h8.312a1.369,1.369,0,1,0,0-2.738ZM5.554,4.471H5.422c.034-.016.068-.033.1-.05C5.534,4.436,5.544,4.453,5.554,4.471Z" transform="translate(20727.189 15271.049)" fill="#d2fffd"/>
    <path id="Path_319" data-name="Path 319" d="M6.238,1.8a.83.83,0,0,0-.359.082A1.328,1.328,0,0,0,4.071.729a1.505,1.505,0,0,0-2.908.5h0a1.124,1.124,0,1,0,0,2.247H6.238a.836.836,0,1,0,0-1.672ZM3.406,2.64h-.08l.061-.031Z" transform="translate(20722.434 15260.231)" fill="#d2fffd"/>
    <path id="Path_317" data-name="Path 317" d="M.942,1.964a.9.9,0,0,1,.387.088A1.433,1.433,0,0,1,3.28.8a1.624,1.624,0,0,1,3.137.539h0a1.212,1.212,0,1,1,0,2.424H.942a.9.9,0,1,1,0-1.8ZM4,2.865h.087l-.066-.033Z" transform="translate(20746.125 15275.049)" fill="#d2fffd"/>
    <path id="Path_314" data-name="Path 314" d="M8.579,1.422a1.638,1.638,0,0,0-.774.067A1.641,1.641,0,0,0,5.272.359,1.23,1.23,0,0,0,3.383.533C3.345.525,3.308.518,3.269.512A1.915,1.915,0,0,0,1.145,1.857a1.216,1.216,0,0,0-.119,2.417,1.15,1.15,0,0,0,.153.013c0,.021-.008.043-.011.064A1.216,1.216,0,0,0,3.4,5.174,1.641,1.641,0,0,0,5.852,5.6a1.64,1.64,0,0,0,2.058-.968,1.641,1.641,0,1,0,.668-3.21Z" transform="translate(20732.164 15262.561)" fill="#d2fffd"/>
  </g>
</svg>
